{"title":"A Million Ways To Die In The West 2014 720p HDRip [NO SUBS] x264","uid":10363072,"size":1858928485,"categoryP":"video","categoryS":"hd___movies","magnet":"?xt=urn:btih:f4ae9d5f582929f70d774e69180b7ffe65f5438e&amp;dn=A+Million+Ways+To+Die+In+The+West+2014+720p+HDRip+%5BNO+SUBS%5D+x264&amp;tr=udp%3A%2F%2Ftracker.openbittorrent.com%3A80&amp;tr=udp%3A%2F%2Fopen.demonii.com%3A1337&amp;tr=udp%3A%2F%2Ftracker.coppersurfer.tk%3A6969&amp;tr=udp%3A%2F%2Fexodus.desync.com%3A6969","seeders":9,"leechers":0,"uploader":"shawnmurthy","files":-1,"time":1402837688,"description":"....SOURCE IS GOOD....HAD SUBS CROPPED IT AND MADE THE AUDIO BETTER...VIDEO IS GOOD....ENJOY...PIMP4003 OUT\n\nSCREENSHOTS\n &lt;a href=&quot;\nhttp://pimp4003.net/torrents.php?id=f4ae9d5f582929f70d774e69180b7ffe65f5438e&quot; rel=&quot;nofollow&quot; target=&quot;_NEW&quot;&gt;\nhttp://pimp4003.net/torrents.php?id=f4ae9d5f582929f70d774e69180b7ffe65f5438e&lt;/a&gt;\n\nA Million Ways To Die In The West 2014 720p HDRip [NO SUBS] x264 Pimp4003\n &lt;a href=&quot;\nhttp://www.imdb.com/title/tt2557490/&quot; rel=&quot;nofollow&quot; target=&quot;_NEW&quot;&gt;\nhttp://www.imdb.com/title/tt2557490/&lt;/a&gt;\n\nAs a cowardly farmer begins to fall for the mysterious new woman in town, he must put his new-found courage to the test when her husband, a notorious gun-slinger, announces his arrival.\n\nDirector: Seth MacFarlane\nWriters: Seth MacFarlane, Alec Sulkin, 1 more credit Â»\nStars: Seth MacFarlane, Charlize Theron, Liam Neeson | See full cast and crew Â»\n\nVideo\nID                                       : 2\nFormat                                   : AVC\nFormat/Info                              : Advanced Video Codec\nFormat profile                           : Baseline@L3.0\nFormat settings, CABAC                   : No\nFormat settings, ReFrames                : 1 frame\nFormat settings, GOP                     : M=1, N=25\nMuxing mode                              : Container profile=Baseline@4.1\nCodec ID                                 : avc1\nCodec ID/Info                            : Advanced Video Coding\nDuration                                 : 1h 51mn\nBit rate                                 : 2 090 Kbps\nWidth                                    : 1 280 pixels\nHeight                                   : 720 pixels\nDisplay aspect ratio                     : 16:9\nFrame rate mode                          : Constant\nFrame rate                               : 23.976 fps\nOriginal frame rate                      : 23.000 fps\nColor space                              : YUV\nChroma subsampling                       : 4:2:0\nBit depth                                : 8 bits\nScan type                                : Progressive\nBits/(Pixel*Frame)                       : 0.095\nStream size                              : 1.63 GiB (94%)\nWriting library                          : \nLanguage                                 : English\n\nAudio\nID                                       : 1\nFormat                                   : AAC\nFormat/Info                              : Advanced Audio Codec\nFormat profile                           : LC\nCodec ID                                 : 40\nDuration                                 : 1h 51mn\nBit rate mode                            : Constant\nBit rate                                 : 128 Kbps\nChannel(s)                               : 2 channels\nChannel positions                        : Front: L R\nSampling rate                            : 48.0 KHz\nCompression mode                         : Lossy\nStream size                              : 102 MiB (6%)\nLanguage                                 : English\n","torrent":{"xt":"urn:btih:f4ae9d5f582929f70d774e69180b7ffe65f5438e","amp;dn":"A+Million+Ways+To+Die+In+The+West+2014+720p+HDRip+%5BNO+SUBS%5D+x264","amp;tr":["udp%3A%2F%2Ftracker.openbittorrent.com%3A80","udp%3A%2F%2Fopen.demonii.com%3A1337","udp%3A%2F%2Ftracker.coppersurfer.tk%3A6969","udp%3A%2F%2Fexodus.desync.com%3A6969"],"infoHash":"f4ae9d5f582929f70d774e69180b7ffe65f5438e","infoHashBuffer":{"type":"Buffer","data":[244,174,157,95,88,41,41,247,13,119,78,105,24,11,127,254,101,245,67,142]},"announce":[],"urlList":[]}}